<?xml version="1.0" standalone="no"?>
<!DOCTYPE svg PUBLIC "-//W3C//DTD SVG 20010904//EN"
 "http://www.w3.org/TR/2001/REC-SVG-20010904/DTD/svg10.dtd">
<svg version="1.0" xmlns="http://www.w3.org/2000/svg"
 width="4244.000000pt" height="4244.000000pt" viewBox="0 0 4244.000000 4244.000000"
 preserveAspectRatio="xMidYMid meet">
<metadata>
Created by potrace 1.14, written by Peter Selinger 2001-2017
</metadata>
<g transform="translate(0.000000,4244.000000) scale(0.100000,-0.100000)"
fill="#000000" stroke="none">
<path d="M20967 42434 c-1 -1 -137 -5 -302 -9 -165 -3 -329 -8 -365 -10 -36
-2 -123 -6 -195 -10 -137 -7 -182 -9 -335 -20 -163 -11 -213 -14 -275 -20 -33
-3 -89 -7 -125 -10 -36 -3 -84 -7 -106 -10 -23 -2 -72 -7 -110 -10 -38 -3 -82
-8 -99 -10 -16 -1 -59 -6 -95 -10 -36 -3 -81 -8 -100 -10 -19 -3 -56 -7 -82
-10 -123 -13 -145 -16 -168 -20 -24 -4 -44 -6 -166 -20 -28 -3 -60 -7 -71 -9
-11 -3 -44 -7 -74 -11 -52 -6 -71 -9 -134 -19 -16 -3 -48 -7 -70 -11 -23 -3
-50 -7 -61 -9 -12 -2 -45 -7 -74 -11 -29 -4 -62 -9 -74 -11 -11 -2 -36 -6 -56
-9 -20 -3 -47 -7 -60 -10 -13 -3 -40 -7 -60 -10 -20 -3 -47 -7 -60 -10 -13 -3
-40 -7 -60 -10 -20 -3 -47 -8 -60 -10 -55 -11 -86 -17 -105 -19 -11 -2 -33 -6
-50 -9 -16 -4 -43 -9 -60 -12 -16 -3 -41 -7 -55 -10 -26 -5 -52 -10 -110 -20
-19 -3 -55 -11 -80 -16 -25 -6 -60 -13 -79 -15 -19 -3 -37 -6 -41 -9 -4 -2
-22 -7 -41 -10 -19 -3 -41 -8 -49 -10 -8 -2 -28 -7 -45 -10 -16 -2 -41 -7 -55
-10 -14 -3 -34 -8 -45 -10 -24 -5 -336 -76 -350 -79 -5 -2 -23 -6 -40 -10 -16
-4 -67 -16 -113 -27 -45 -11 -92 -22 -103 -24 -11 -2 -29 -7 -39 -10 -10 -3
-27 -8 -37 -10 -26 -5 -282 -72 -388 -101 -49 -14 -101 -27 -114 -30 -14 -3
-28 -7 -33 -10 -5 -3 -18 -7 -31 -10 -12 -2 -128 -36 -257 -74 -129 -39 -242
-72 -250 -74 -8 -3 -44 -14 -80 -25 -36 -11 -68 -21 -72 -21 -4 0 -28 -9 -53
-20 -25 -11 -45 -18 -45 -15 0 4 -408 -133 -550 -185 -47 -17 -92 -32 -100
-35 -34 -9 -502 -184 -602 -226 -92 -37 -103 -42 -113 -45 -5 -1 -28 -10 -50
-20 -22 -10 -44 -19 -50 -20 -23 -5 -514 -215 -625 -267 -25 -11 -47 -21 -50
-22 -21 -6 -219 -96 -387 -176 -44 -22 -86 -39 -92 -39 -6 0 -11 -4 -11 -10 0
-5 -5 -10 -12 -10 -12 0 -502 -242 -683 -338 -170 -90 -295 -157 -350 -187
-27 -16 -66 -37 -85 -48 -28 -15 -453 -258 -528 -302 -406 -236 -1047 -653
-1492 -970 -164 -117 -645 -475 -730 -543 -14 -11 -106 -85 -205 -163 -99 -78
-223 -178 -275 -222 -52 -43 -102 -84 -110 -91 -75 -61 -464 -399 -566 -491
-310 -282 -496 -459 -793 -755 -524 -522 -1046 -1094 -1376 -1505 -22 -28 -43
-52 -46 -55 -12 -11 -184 -226 -312 -390 -75 -96 -145 -184 -156 -196 -10 -11
-24 -32 -31 -45 -7 -13 -18 -29 -24 -35 -6 -6 -27 -32 -46 -57 -19 -26 -55
-73 -79 -105 -95 -126 -321 -442 -321 -451 0 -5 -4 -11 -8 -13 -17 -6 -432
-620 -432 -638 0 -6 -3 -10 -7 -10 -5 0 -15 -12 -24 -28 -9 -15 -82 -133 -163
-262 -80 -129 -150 -242 -156 -250 -55 -91 -204 -344 -268 -455 -44 -77 -92
-160 -106 -185 -14 -25 -37 -67 -52 -95 -14 -27 -33 -63 -43 -80 -22 -38 -96
-174 -178 -330 -65 -123 -403 -801 -403 -808 0 -3 -23 -54 -51 -113 -28 -60
-57 -122 -64 -139 -7 -16 -32 -70 -55 -120 -23 -49 -43 -96 -43 -102 0 -7 -4
-13 -9 -13 -4 0 -7 -3 -6 -7 1 -8 -18 -55 -47 -118 -47 -101 -75 -166 -75
-175 0 -6 -4 -18 -9 -28 -27 -48 -81 -179 -128 -307 -8 -22 -21 -53 -28 -70
-17 -36 -76 -186 -80 -200 -1 -5 -8 -23 -14 -40 -17 -39 -172 -457 -176 -470
-1 -5 -5 -17 -8 -25 -9 -22 -68 -193 -71 -205 -2 -5 -6 -17 -9 -25 -13 -29
-156 -467 -186 -565 -16 -55 -44 -147 -62 -205 -17 -58 -32 -109 -33 -115 -1
-5 -9 -32 -18 -60 -32 -101 -72 -250 -67 -250 1 0 -3 -9 -9 -21 -6 -11 -13
-32 -16 -45 -12 -56 -16 -74 -26 -104 -6 -18 -13 -42 -15 -54 -6 -23 -4 -18
-40 -156 -15 -55 -28 -107 -30 -115 -2 -8 -15 -60 -29 -115 -20 -82 -57 -238
-71 -305 -1 -8 -8 -33 -14 -55 -5 -22 -13 -55 -16 -74 -3 -19 -7 -37 -9 -40
-2 -3 -7 -22 -10 -41 -3 -19 -8 -45 -11 -57 -12 -52 -15 -69 -20 -93 -8 -42
-15 -74 -19 -95 -9 -42 -35 -171 -40 -195 -9 -47 -26 -135 -31 -160 -3 -14 -8
-40 -11 -59 -3 -18 -8 -43 -10 -55 -3 -11 -7 -34 -9 -51 -3 -16 -7 -41 -10
-55 -3 -14 -8 -41 -11 -60 -3 -19 -7 -42 -9 -50 -2 -8 -7 -37 -11 -65 -3 -27
-7 -52 -9 -55 -2 -3 -6 -30 -10 -60 -4 -30 -8 -57 -10 -60 -2 -3 -6 -29 -10
-59 -4 -30 -9 -63 -11 -75 -2 -11 -6 -38 -9 -61 -3 -22 -8 -51 -10 -65 -3 -14
-7 -43 -10 -65 -3 -22 -7 -49 -9 -60 -2 -11 -7 -49 -11 -85 -4 -36 -9 -74 -11
-85 -2 -11 -6 -38 -9 -60 -2 -22 -6 -56 -9 -75 -3 -19 -8 -55 -11 -80 -2 -25
-7 -61 -9 -80 -3 -19 -7 -60 -10 -90 -3 -30 -8 -71 -10 -90 -6 -41 -18 -152
-21 -195 -9 -97 -16 -166 -20 -210 -3 -27 -7 -72 -10 -100 -2 -27 -7 -86 -11
-130 -3 -44 -8 -100 -9 -125 -2 -25 -6 -92 -10 -150 -11 -156 -12 -172 -20
-330 -4 -80 -9 -174 -10 -210 -23 -427 -22 -1421 0 -1825 2 -33 6 -123 10
-200 4 -77 8 -162 10 -190 2 -27 7 -97 11 -155 11 -170 22 -318 29 -390 2 -19
6 -69 10 -110 4 -41 8 -91 10 -110 2 -19 6 -63 9 -97 3 -34 8 -77 10 -95 3
-18 8 -60 11 -93 3 -33 8 -71 10 -85 2 -14 7 -52 10 -84 3 -33 7 -71 9 -85 3
-14 7 -51 11 -81 3 -30 8 -71 11 -90 3 -19 7 -46 8 -60 2 -14 7 -50 10 -80 4
-30 10 -68 12 -85 3 -16 7 -45 10 -64 2 -19 7 -48 10 -65 8 -50 12 -78 19
-126 3 -25 10 -70 15 -100 5 -30 12 -72 16 -94 3 -21 8 -48 10 -60 2 -11 7
-41 10 -66 3 -25 8 -47 9 -50 2 -3 6 -26 9 -50 4 -25 9 -58 13 -75 4 -16 7
-37 8 -45 2 -13 17 -92 30 -160 3 -14 10 -51 15 -82 17 -93 18 -96 50 -248 17
-80 33 -154 34 -165 2 -11 6 -29 9 -40 3 -11 9 -33 11 -50 3 -16 10 -45 15
-63 5 -18 10 -35 10 -37 0 -3 2 -18 5 -33 10 -46 17 -76 22 -102 3 -14 21 -90
41 -170 19 -80 37 -153 39 -163 2 -9 6 -25 8 -35 2 -9 21 -80 41 -157 20 -77
37 -144 38 -150 2 -5 6 -16 10 -22 5 -7 6 -13 3 -13 -2 0 0 -15 5 -32 15 -50
59 -210 65 -236 2 -13 11 -42 19 -65 11 -35 19 -63 40 -137 21 -75 29 -103 42
-140 8 -25 16 -52 18 -60 2 -8 4 -15 5 -15 1 0 3 -8 5 -17 2 -9 18 -63 36
-120 18 -57 33 -107 35 -113 4 -17 154 -469 160 -485 4 -8 8 -19 10 -25 2 -5
16 -48 33 -95 16 -47 41 -116 54 -155 20 -56 85 -231 189 -505 5 -14 10 -27
10 -30 0 -3 5 -14 11 -25 6 -11 12 -22 13 -25 1 -7 14 -41 26 -70 15 -36 20
-49 93 -230 37 -91 72 -171 78 -179 7 -8 11 -15 9 -15 -7 -2 104 -264 119
-282 6 -8 9 -14 5 -14 -4 0 4 -19 16 -43 12 -23 23 -44 23 -47 3 -11 64 -147
112 -250 20 -41 49 -104 65 -140 59 -126 339 -687 418 -835 43 -82 92 -175
108 -205 88 -167 377 -672 480 -838 12 -21 32 -54 45 -76 12 -21 27 -46 32
-55 71 -115 110 -177 115 -181 3 -3 14 -21 24 -40 11 -19 22 -37 25 -40 3 -3
15 -22 25 -42 11 -21 23 -38 28 -38 4 0 8 -5 8 -11 0 -15 373 -575 546 -819
134 -190 450 -620 463 -630 4 -3 18 -21 31 -40 20 -28 83 -111 177 -230 214
-272 590 -723 758 -910 18 -19 76 -84 130 -145 108 -121 143 -159 350 -380
135 -144 710 -722 831 -835 256 -238 327 -303 459 -421 199 -178 342 -302 505
-438 74 -62 157 -132 184 -154 27 -23 59 -48 70 -56 12 -8 23 -18 26 -21 3 -3
55 -46 115 -94 61 -48 117 -93 125 -99 8 -7 67 -53 130 -102 63 -49 120 -93
125 -97 26 -22 404 -300 515 -379 69 -49 130 -92 135 -96 51 -40 85 -63 90
-63 4 0 13 -6 20 -14 12 -11 488 -334 533 -361 9 -5 49 -31 89 -57 40 -27 75
-48 78 -48 3 0 11 -5 18 -10 32 -27 295 -190 306 -190 5 0 11 -4 13 -8 7 -16
625 -378 888 -519 119 -64 154 -84 165 -94 5 -5 15 -9 22 -9 7 0 31 -11 53
-25 87 -55 736 -378 1043 -519 220 -101 261 -119 442 -197 194 -84 190 -83
240 -105 56 -25 378 -155 390 -158 6 -1 19 -7 30 -13 11 -6 23 -11 28 -12 4 0
22 -7 40 -14 17 -8 50 -20 72 -27 22 -7 45 -15 50 -19 6 -3 12 -6 15 -7 3 0
12 -4 20 -7 28 -12 205 -79 215 -81 6 -2 24 -8 40 -15 17 -7 55 -21 85 -31 30
-11 100 -36 155 -55 55 -20 107 -38 115 -40 8 -2 16 -4 18 -5 1 -2 5 -3 10 -4
4 -1 12 -4 17 -7 9 -6 462 -156 490 -163 6 -2 37 -11 70 -21 33 -11 63 -20 68
-21 4 -1 9 -3 12 -4 3 -1 8 -3 13 -4 4 -1 23 -7 42 -13 83 -27 241 -74 260
-78 11 -2 24 -6 28 -9 5 -3 19 -7 33 -10 13 -3 89 -24 169 -46 80 -23 152 -44
160 -46 8 -2 31 -8 50 -13 56 -15 313 -82 333 -87 9 -2 26 -6 37 -9 11 -3 28
-7 38 -9 9 -2 73 -18 142 -35 69 -16 136 -32 150 -35 14 -2 63 -13 110 -24 98
-24 170 -40 260 -58 23 -5 143 -31 185 -40 11 -2 34 -7 50 -9 17 -3 37 -8 45
-10 8 -2 26 -6 40 -9 21 -3 150 -27 215 -40 11 -2 40 -7 65 -12 25 -4 47 -8
50 -9 3 -1 28 -5 55 -10 28 -4 59 -9 70 -11 11 -3 35 -7 54 -10 18 -3 43 -8
55 -10 11 -2 41 -7 66 -10 25 -3 61 -9 80 -14 19 -5 60 -12 90 -16 73 -9 89
-11 125 -18 17 -2 50 -8 75 -11 25 -3 56 -8 70 -10 14 -2 39 -6 55 -9 17 -3
55 -8 85 -11 30 -3 69 -9 85 -11 36 -6 58 -9 145 -19 36 -4 74 -9 84 -11 11
-2 40 -6 65 -8 94 -10 215 -24 286 -32 49 -5 77 -8 185 -18 30 -3 80 -8 110
-11 30 -3 80 -8 110 -10 223 -18 258 -21 405 -31 55 -3 120 -8 145 -9 25 -2
108 -6 185 -10 77 -4 167 -8 200 -10 395 -23 1391 -22 1835 0 301 15 408 21
535 30 55 4 120 8 145 10 97 6 218 17 355 30 33 3 85 8 115 10 30 3 75 7 100
10 25 3 70 8 100 11 30 3 66 7 80 9 14 2 54 7 90 10 36 3 76 8 90 9 14 2 52 7
85 11 33 3 74 9 90 12 17 2 46 6 65 8 19 2 49 6 65 9 17 2 55 8 85 11 52 7 87
12 135 19 11 2 44 7 74 11 30 3 63 9 75 11 11 2 38 6 61 9 22 3 51 8 65 10 14
3 39 7 55 9 67 11 190 32 245 42 14 2 41 7 60 10 34 5 55 8 110 19 14 3 39 8
55 11 17 2 41 7 55 9 14 3 36 7 50 10 14 3 41 8 60 11 19 3 42 7 50 9 8 3 33
7 55 11 22 3 43 8 46 10 4 2 24 6 45 9 22 4 47 8 56 11 16 5 36 9 88 19 14 3
36 7 50 10 14 3 39 8 55 11 17 2 48 10 70 16 22 5 51 12 65 15 22 4 83 17 133
29 51 12 65 15 102 24 124 27 308 71 375 90 36 11 103 28 150 40 47 11 92 23
100 25 22 6 203 55 220 60 8 2 15 4 15 5 0 2 12 5 50 13 11 3 47 13 80 22 33
10 61 17 63 16 1 -1 18 5 37 13 20 9 38 15 40 16 3 0 6 0 8 1 1 0 10 2 20 4
46 9 434 131 702 221 121 41 228 76 238 78 10 3 57 19 105 36 286 103 406 148
632 236 69 27 127 49 130 50 3 0 17 6 33 12 15 6 111 46 215 88 103 42 207 85
232 97 25 11 50 22 55 23 6 1 36 13 68 28 136 62 168 76 171 76 3 0 39 16 83
36 43 20 101 46 128 59 28 13 86 40 130 60 44 20 105 48 135 62 86 39 663 326
785 391 61 32 135 71 165 87 30 16 84 45 120 66 36 20 97 53 135 74 64 35 211
117 276 155 15 8 77 44 139 80 61 36 124 72 138 81 276 166 347 209 402 244
152 98 316 201 332 207 10 4 18 12 18 18 0 5 5 10 10 10 13 0 652 430 695 468
6 5 35 25 65 46 219 151 1043 783 1130 867 8 8 43 37 77 64 35 28 63 53 63 58
0 4 6 7 14 7 8 0 16 3 18 8 3 7 48 46 202 176 27 22 54 46 60 52 6 5 54 48
106 93 52 46 135 120 185 165 49 44 109 99 134 121 24 22 63 58 87 80 23 22
88 83 145 135 137 126 755 745 894 895 61 65 137 148 171 184 87 94 249 274
319 356 33 39 65 75 71 80 18 17 183 211 335 395 600 724 1205 1564 1684 2336
133 215 315 523 315 533 0 5 3 11 8 13 8 3 157 262 232 403 24 44 46 85 50 90
4 6 33 57 63 115 31 58 81 152 111 210 60 112 330 656 389 780 52 113 96 207
133 290 19 41 39 83 44 92 6 10 10 25 10 33 0 8 5 15 10 15 6 0 9 3 8 8 -1 4
4 18 9 32 19 43 49 113 72 163 53 119 61 137 61 146 0 5 7 22 15 38 15 27 30
67 35 88 1 6 6 15 10 20 5 6 22 44 38 85 17 41 46 116 67 165 20 50 38 95 39
100 4 14 47 122 67 170 18 43 160 427 173 470 2 6 6 19 10 30 5 11 12 34 18
50 5 17 14 39 19 50 13 28 229 685 234 710 2 11 4 21 6 23 1 1 2 5 3 10 1 4 9
30 18 57 24 72 59 193 63 213 2 9 4 18 5 20 2 1 3 5 4 10 1 4 7 23 13 42 21
67 43 145 49 170 7 35 8 38 28 105 17 57 20 67 31 115 2 12 9 36 15 55 24 81
30 104 50 185 12 47 23 92 24 100 2 8 19 73 36 145 18 71 33 134 35 140 1 5 5
21 8 35 6 25 46 201 52 230 2 8 8 35 14 60 5 25 12 56 15 70 3 14 8 36 11 50
3 14 7 36 10 50 14 70 18 92 30 142 3 13 8 34 10 48 2 14 7 36 10 50 3 14 7
36 10 50 3 14 7 35 9 46 2 12 7 37 10 55 3 19 8 45 11 59 2 14 7 36 10 50 2
14 7 39 10 55 3 17 7 40 9 51 2 12 7 37 10 55 3 19 8 45 11 59 2 13 7 40 10
60 3 20 7 47 10 60 3 13 7 40 10 60 3 20 7 47 10 60 5 25 14 87 20 130 2 14 6
39 9 55 11 62 25 156 32 205 1 14 5 39 7 55 3 17 8 55 12 85 3 30 8 66 10 80
8 55 16 109 20 146 2 21 6 53 9 69 7 49 16 126 21 185 3 30 7 66 10 80 2 14 7
57 10 95 4 39 9 84 11 100 1 17 5 59 8 95 4 36 8 90 11 120 13 128 26 286 30
350 5 79 16 243 20 300 4 49 7 119 20 385 23 459 23 1428 0 1830 -2 33 -6 123
-10 200 -9 172 -11 203 -20 335 -14 210 -23 325 -31 405 -3 28 -7 70 -9 95 -5
59 -16 175 -21 225 -2 22 -6 65 -9 95 -6 55 -9 89 -20 165 -2 22 -7 62 -10 89
-2 26 -7 65 -9 85 -6 38 -16 120 -21 161 -3 34 -15 120 -20 150 -2 14 -6 45
-9 70 -3 25 -8 54 -10 66 -2 12 -7 45 -11 74 -4 29 -9 62 -11 74 -2 12 -7 39
-10 61 -2 22 -7 52 -9 68 -8 44 -15 85 -20 120 -3 17 -10 57 -15 87 -10 57
-16 96 -25 153 -3 17 -8 43 -10 57 -3 14 -8 36 -10 50 -3 14 -8 40 -11 59 -3
18 -8 43 -10 55 -3 11 -6 30 -8 41 -2 11 -6 34 -9 50 -4 17 -9 44 -12 60 -3
17 -7 41 -10 55 -3 14 -8 39 -10 55 -3 17 -8 37 -10 45 -2 8 -6 26 -9 40 -2
14 -12 59 -21 100 -9 41 -18 86 -21 100 -2 14 -7 36 -10 50 -7 31 -8 36 -29
130 -9 41 -18 82 -20 90 -7 27 -36 154 -45 195 -7 32 -57 229 -126 500 -3 11
-7 27 -9 35 -2 8 -4 15 -5 15 -1 0 -3 10 -5 21 -3 12 -27 102 -55 200 -28 99
-53 190 -56 203 -3 14 -7 28 -10 33 -3 4 -7 16 -9 25 -2 10 -15 56 -30 103
-14 47 -27 90 -29 95 -1 6 -9 30 -16 55 -7 25 -14 50 -16 55 -1 6 -12 42 -25
80 -13 39 -24 73 -25 78 -1 4 -3 9 -4 12 -1 3 -4 10 -5 15 -1 6 -3 11 -5 13
-1 1 -3 9 -5 17 -8 39 -246 737 -275 805 -11 26 -22 57 -26 70 -2 11 -58 157
-130 345 -24 63 -49 123 -55 134 -6 10 -12 26 -14 35 -2 9 -11 35 -21 57 -9
21 -18 41 -19 44 -2 6 0 1 -76 185 -31 77 -67 163 -80 190 -12 28 -23 55 -25
60 -2 11 -129 295 -169 380 -13 28 -42 91 -65 140 -23 50 -62 135 -88 190 -55
117 -342 690 -394 785 -19 36 -57 106 -83 155 -27 50 -56 104 -65 120 -9 17
-32 57 -50 90 -219 398 -720 1228 -795 1318 -8 9 -15 20 -15 23 0 10 -321 481
-464 681 -116 164 -373 513 -439 597 -54 69 -72 91 -79 94 -5 2 -8 8 -8 13 0
7 -164 218 -284 364 -188 230 -398 479 -497 590 -15 17 -68 77 -119 135 -50
58 -99 112 -108 120 -10 9 -42 45 -73 80 -31 36 -81 91 -110 122 -30 31 -101
107 -159 169 -153 164 -700 711 -875 874 -82 76 -152 142 -155 145 -5 5 -49
45 -205 186 -169 153 -370 327 -585 505 -118 99 -222 185 -230 192 -8 6 -53
43 -100 80 -47 38 -101 81 -120 97 -19 15 -91 71 -160 124 -69 53 -129 99
-135 104 -5 4 -32 24 -60 45 -27 20 -56 42 -63 48 -10 9 -303 224 -387 285
-112 81 -217 154 -221 154 -3 0 -12 7 -20 15 -12 12 -659 443 -739 492 -11 7
-80 50 -153 95 -215 134 -344 212 -392 238 -25 14 -47 28 -50 31 -3 3 -25 17
-50 30 -25 14 -120 69 -213 122 -92 54 -170 97 -173 97 -3 0 -26 14 -51 30
-24 17 -50 30 -58 30 -8 0 -17 5 -20 10 -3 6 -23 18 -43 28 -20 11 -73 38
-117 62 -221 121 -864 445 -1010 510 -27 12 -101 47 -163 76 -63 30 -115 54
-118 54 -2 0 -38 16 -80 35 -41 19 -77 35 -79 35 -2 0 -36 15 -77 34 -40 18
-102 46 -138 61 -36 15 -83 35 -105 45 -49 22 -253 106 -315 130 -25 9 -67 26
-95 37 -49 21 -85 35 -95 38 -3 1 -21 8 -40 16 -19 9 -69 28 -110 43 -41 15
-84 32 -95 37 -29 12 -268 101 -280 103 -5 1 -14 4 -20 7 -8 5 -76 30 -95 34
-3 1 -12 5 -20 8 -36 15 -658 225 -685 231 -5 2 -37 11 -70 21 -33 11 -63 20
-67 21 -5 1 -10 3 -13 4 -3 1 -8 3 -12 4 -29 8 -131 38 -143 43 -8 3 -19 7
-25 9 -5 1 -50 14 -100 29 -49 15 -103 31 -120 35 -64 17 -252 70 -280 79 -16
6 -41 12 -55 15 -14 2 -65 15 -115 29 -156 44 -622 159 -705 173 -14 3 -38 9
-55 14 -25 7 -105 22 -112 22 -2 -1 -17 4 -35 9 -18 5 -46 12 -63 15 -16 3
-34 7 -40 8 -5 2 -28 6 -50 11 -52 10 -70 14 -97 20 -13 3 -35 7 -50 10 -15 2
-35 6 -45 9 -10 3 -31 8 -48 11 -16 2 -39 7 -50 9 -48 9 -111 20 -120 21 -5 1
-23 4 -40 8 -16 4 -43 9 -60 12 -16 3 -40 7 -51 9 -12 2 -37 7 -55 10 -19 3
-45 8 -59 11 -61 12 -78 15 -120 20 -25 3 -52 8 -60 10 -8 2 -33 7 -55 10 -23
3 -50 7 -60 9 -38 7 -100 17 -139 21 -22 3 -53 8 -70 11 -66 11 -82 13 -121
18 -22 3 -49 7 -60 10 -11 2 -45 7 -76 10 -31 4 -66 8 -76 10 -22 5 -88 13
-168 22 -58 7 -83 10 -145 18 -25 3 -65 8 -90 10 -75 8 -143 16 -189 22 -24 3
-67 7 -95 9 -28 3 -69 7 -91 9 -22 3 -76 8 -120 11 -44 4 -93 9 -110 11 -26 2
-105 8 -245 19 -40 3 -236 16 -295 20 -22 1 -105 6 -185 10 -80 4 -174 8 -210
10 -213 11 -1154 27 -1163 19z m953 -4178 c47 -2 135 -7 195 -10 61 -4 148 -9
195 -11 47 -3 108 -7 136 -10 28 -2 91 -7 140 -11 49 -3 105 -7 124 -9 69 -6
166 -15 210 -20 25 -3 68 -7 95 -10 88 -9 203 -22 265 -30 19 -2 60 -7 90 -10
30 -4 67 -8 81 -11 15 -2 47 -6 70 -9 24 -3 55 -7 69 -10 14 -3 45 -7 69 -10
23 -3 55 -7 70 -10 14 -2 44 -7 66 -9 22 -3 50 -8 61 -10 22 -5 60 -11 129
-21 23 -3 50 -7 60 -9 11 -2 40 -7 65 -11 25 -4 54 -9 65 -11 27 -6 63 -12
105 -19 19 -3 42 -8 50 -10 8 -2 31 -6 50 -9 19 -3 46 -8 60 -11 14 -3 36 -7
50 -10 43 -8 74 -14 100 -20 14 -3 36 -8 50 -10 14 -3 39 -8 55 -11 17 -4 39
-7 50 -9 11 -2 52 -10 90 -19 83 -20 112 -26 145 -32 14 -3 43 -10 65 -16 22
-6 49 -12 60 -14 11 -2 40 -8 65 -15 25 -6 55 -13 67 -15 12 -2 34 -9 48 -14
14 -5 25 -7 25 -5 0 2 11 0 25 -5 14 -5 36 -12 48 -14 21 -5 42 -10 87 -21 45
-11 66 -16 86 -20 12 -3 40 -11 63 -19 22 -9 41 -13 41 -11 0 2 19 -2 41 -11
23 -8 51 -16 63 -18 12 -2 71 -18 131 -36 61 -18 118 -34 127 -35 9 -2 25 -8
35 -13 10 -6 23 -11 28 -11 28 -4 64 -14 98 -27 20 -8 37 -11 37 -8 0 3 6 2
13 -3 6 -4 14 -8 17 -8 3 -1 39 -12 80 -25 41 -13 80 -25 85 -26 6 -1 105 -34
220 -74 116 -39 215 -72 220 -74 6 -1 42 -14 81 -29 39 -15 79 -30 90 -32 22
-5 332 -123 514 -196 131 -53 143 -57 202 -83 20 -9 39 -16 42 -16 3 0 29 -11
58 -24 29 -13 103 -45 163 -71 61 -26 133 -57 160 -70 28 -12 82 -37 120 -54
174 -79 293 -137 615 -300 190 -95 356 -180 370 -188 14 -8 48 -26 75 -41 181
-99 404 -226 568 -324 53 -32 100 -58 103 -58 3 0 10 -5 17 -10 7 -6 64 -43
127 -82 63 -38 145 -90 182 -114 37 -24 70 -44 73 -44 3 0 11 -5 18 -10 7 -6
104 -72 216 -146 234 -155 265 -176 531 -368 223 -161 332 -243 584 -441 168
-131 525 -425 591 -485 17 -16 93 -83 170 -151 77 -67 158 -140 180 -160 22
-21 54 -50 70 -65 101 -91 364 -346 571 -555 229 -232 303 -310 440 -459 32
-36 61 -67 64 -70 5 -4 86 -96 205 -230 21 -24 124 -143 224 -260 158 -184
520 -645 687 -875 59 -82 112 -154 117 -160 4 -5 40 -55 78 -110 38 -55 75
-107 82 -116 6 -8 17 -23 22 -32 6 -9 73 -110 150 -226 165 -248 287 -437 296
-460 4 -9 14 -23 23 -30 9 -7 16 -17 16 -22 0 -12 62 -113 72 -117 4 -2 8 -8
8 -13 0 -5 19 -41 43 -80 55 -91 63 -104 137 -234 34 -60 72 -126 83 -145 11
-19 30 -53 42 -75 12 -22 41 -76 65 -120 24 -44 63 -116 87 -160 56 -103 314
-620 375 -750 55 -116 142 -309 168 -370 5 -11 18 -40 28 -65 75 -171 127
-297 217 -525 123 -311 117 -298 121 -310 2 -9 49 -137 79 -215 21 -54 28 -74
30 -85 2 -5 17 -50 35 -100 28 -80 60 -177 66 -197 1 -5 3 -10 4 -13 1 -3 3
-8 5 -12 1 -5 4 -15 8 -23 6 -17 30 -91 33 -102 1 -5 3 -10 4 -13 1 -3 4 -9 5
-15 1 -5 3 -11 5 -12 1 -2 3 -10 5 -18 2 -8 22 -76 45 -150 39 -128 147 -498
155 -530 2 -8 13 -51 25 -95 23 -85 28 -105 34 -133 2 -9 9 -37 16 -62 12 -44
17 -64 26 -107 2 -12 9 -34 14 -48 5 -14 7 -25 5 -25 -2 0 0 -11 5 -26 6 -14
12 -39 15 -57 4 -18 10 -50 16 -72 5 -22 12 -51 15 -65 3 -14 9 -41 14 -60 5
-19 12 -53 16 -75 3 -22 8 -43 10 -46 2 -3 6 -21 9 -40 3 -19 8 -41 10 -49 2
-8 7 -28 10 -45 6 -34 12 -69 20 -105 3 -14 7 -36 10 -50 3 -14 7 -36 10 -50
7 -31 12 -59 25 -130 6 -30 12 -65 14 -76 2 -12 7 -37 10 -55 3 -19 8 -45 11
-59 2 -13 7 -40 10 -60 3 -20 7 -47 10 -60 3 -13 7 -42 10 -65 3 -22 8 -47 10
-55 2 -8 7 -39 10 -69 4 -30 9 -63 11 -75 9 -45 13 -73 19 -122 3 -28 8 -61
10 -75 3 -13 7 -45 10 -70 3 -25 7 -54 9 -65 2 -11 7 -50 10 -86 4 -37 9 -77
11 -90 3 -12 7 -50 11 -83 3 -33 7 -71 9 -85 2 -14 6 -56 10 -95 4 -38 9 -83
11 -100 1 -16 6 -61 9 -100 3 -38 8 -86 10 -105 2 -19 6 -75 10 -125 3 -49 7
-110 10 -135 4 -40 13 -185 20 -320 14 -250 19 -519 19 -910 0 -601 -13 -932
-59 -1485 -3 -33 -7 -80 -10 -105 -2 -25 -7 -72 -10 -105 -3 -33 -8 -80 -10
-105 -3 -25 -7 -63 -10 -85 -5 -58 -14 -135 -20 -175 -5 -36 -11 -91 -21 -170
-3 -25 -7 -56 -9 -70 -2 -14 -6 -45 -10 -70 -4 -25 -8 -56 -10 -70 -2 -14 -7
-47 -11 -75 -3 -27 -8 -59 -10 -70 -2 -11 -7 -40 -10 -65 -3 -25 -8 -54 -10
-65 -2 -10 -6 -37 -9 -60 -3 -22 -8 -47 -10 -55 -2 -8 -7 -35 -10 -60 -3 -25
-8 -52 -10 -60 -4 -15 -13 -60 -20 -110 -4 -26 -12 -66 -20 -110 -3 -14 -8
-36 -10 -50 -3 -14 -8 -38 -11 -55 -4 -16 -8 -39 -10 -50 -6 -39 -14 -80 -20
-105 -8 -32 -13 -58 -19 -92 -3 -14 -19 -88 -36 -163 -38 -170 -38 -170 -44
-198 -2 -12 -7 -34 -11 -49 -3 -15 -5 -30 -5 -33 0 -2 -6 -23 -14 -45 -8 -22
-12 -40 -10 -40 3 0 0 -11 -5 -25 -5 -14 -12 -36 -14 -48 -2 -12 -12 -51 -21
-87 -9 -36 -18 -72 -20 -80 -2 -8 -20 -76 -40 -150 -20 -74 -38 -139 -39 -145
-1 -5 -10 -37 -20 -70 -10 -33 -19 -67 -21 -75 -2 -8 -10 -38 -20 -66 -9 -28
-18 -57 -19 -65 -2 -8 -6 -21 -9 -29 -3 -8 -15 -49 -27 -90 -12 -41 -27 -91
-34 -110 -8 -19 -14 -38 -15 -42 -1 -4 -3 -13 -6 -20 -2 -7 -14 -44 -26 -83
-12 -38 -48 -149 -81 -245 -33 -96 -66 -193 -73 -215 -7 -22 -18 -51 -23 -65
-6 -14 -32 -83 -58 -155 -25 -71 -52 -143 -59 -160 -7 -16 -40 -100 -73 -185
-33 -85 -72 -181 -86 -213 -14 -31 -23 -57 -20 -57 4 0 2 -6 -3 -12 -6 -7 -27
-53 -48 -103 -21 -49 -51 -119 -67 -155 -17 -36 -31 -69 -32 -75 -2 -5 -21
-50 -44 -99 -23 -49 -42 -90 -42 -92 0 -6 -217 -465 -230 -484 -10 -16 -62
-121 -65 -130 0 -3 -9 -21 -19 -40 -11 -19 -41 -78 -69 -130 -88 -170 -149
-284 -167 -315 -10 -16 -32 -57 -50 -90 -60 -108 -70 -127 -190 -335 -4 -8
-50 -84 -102 -169 -51 -85 -95 -159 -97 -165 -2 -6 -7 -13 -11 -16 -3 -3 -17
-23 -30 -45 -104 -175 -408 -632 -588 -885 -97 -135 -339 -463 -373 -504 -5
-6 -23 -29 -39 -51 -16 -22 -33 -44 -38 -50 -4 -5 -75 -93 -157 -195 -245
-305 -539 -648 -765 -889 -19 -21 -84 -90 -144 -154 -103 -111 -504 -513 -632
-634 -51 -49 -262 -246 -298 -278 -89 -81 -311 -275 -416 -365 -74 -63 -137
-117 -140 -120 -3 -4 -108 -89 -235 -189 -126 -101 -239 -191 -250 -200 -11
-9 -65 -50 -120 -91 -55 -40 -104 -78 -110 -83 -57 -49 -497 -359 -745 -524
-155 -103 -200 -132 -375 -243 -38 -25 -72 -47 -75 -50 -3 -3 -19 -12 -35 -21
-17 -9 -93 -54 -170 -101 -192 -117 -339 -202 -347 -203 -4 0 -15 -7 -25 -15
-10 -8 -43 -28 -73 -43 -60 -31 -92 -49 -100 -57 -3 -3 -28 -17 -56 -31 -28
-15 -96 -51 -150 -80 -116 -62 -390 -205 -419 -218 -11 -5 -103 -49 -205 -98
-102 -49 -205 -99 -230 -111 -25 -11 -81 -37 -125 -58 -44 -20 -84 -38 -90
-40 -5 -1 -77 -32 -160 -69 -82 -37 -198 -86 -257 -110 -60 -24 -123 -51 -140
-59 -31 -14 -125 -50 -283 -110 -38 -15 -79 -31 -90 -36 -11 -5 -54 -21 -95
-36 -41 -15 -118 -42 -170 -61 -52 -19 -120 -43 -150 -53 -30 -10 -129 -44
-220 -75 -91 -31 -172 -58 -180 -60 -8 -2 -15 -4 -15 -5 0 -1 -7 -3 -15 -5 -8
-1 -44 -13 -80 -25 -36 -12 -72 -24 -80 -25 -8 -2 -45 -13 -82 -24 -38 -12
-98 -30 -135 -42 -38 -11 -75 -22 -84 -24 -9 -2 -49 -13 -89 -25 -40 -12 -80
-23 -89 -25 -9 -2 -59 -15 -111 -29 -52 -15 -102 -29 -110 -30 -8 -2 -35 -9
-60 -16 -25 -7 -53 -14 -63 -16 -10 -2 -27 -6 -37 -9 -10 -3 -27 -8 -37 -10
-10 -2 -76 -18 -148 -35 -71 -18 -137 -33 -145 -35 -8 -2 -37 -9 -65 -15 -27
-7 -63 -14 -80 -16 -16 -3 -43 -9 -60 -14 -16 -5 -55 -14 -85 -19 -30 -6 -66
-14 -80 -17 -14 -3 -36 -7 -50 -10 -14 -2 -36 -7 -50 -9 -14 -3 -36 -8 -50
-10 -14 -3 -36 -8 -50 -11 -14 -3 -34 -6 -45 -8 -11 -2 -33 -6 -50 -9 -16 -4
-43 -9 -60 -12 -16 -3 -40 -7 -51 -9 -12 -2 -37 -7 -55 -10 -19 -3 -45 -8 -59
-11 -13 -2 -40 -7 -60 -10 -20 -3 -45 -7 -57 -9 -22 -5 -64 -11 -128 -21 -23
-3 -52 -8 -65 -10 -14 -3 -45 -8 -70 -11 -25 -3 -54 -8 -65 -10 -11 -2 -42 -6
-70 -9 -27 -3 -57 -8 -65 -10 -8 -2 -40 -7 -70 -10 -30 -3 -66 -8 -80 -10 -14
-2 -47 -7 -75 -10 -27 -3 -61 -7 -75 -10 -27 -4 -123 -15 -180 -20 -43 -4
-131 -14 -185 -20 -22 -2 -71 -7 -110 -10 -38 -3 -91 -8 -116 -10 -26 -3 -77
-7 -115 -10 -38 -2 -96 -7 -129 -9 -94 -8 -254 -18 -320 -21 -367 -16 -514
-19 -910 -19 -395 0 -646 5 -910 19 -124 6 -282 16 -325 20 -25 2 -81 7 -125
10 -44 3 -107 8 -140 11 -33 3 -79 7 -102 9 -64 6 -164 15 -208 21 -22 2 -65
7 -95 10 -102 11 -207 24 -240 29 -14 2 -47 7 -75 10 -68 7 -113 13 -160 20
-52 8 -80 12 -135 20 -44 6 -71 10 -130 20 -55 9 -85 14 -125 20 -23 3 -50 7
-60 9 -11 2 -40 7 -65 11 -25 4 -54 9 -65 11 -11 3 -35 7 -54 10 -18 3 -43 8
-55 10 -11 2 -34 6 -51 9 -16 3 -41 8 -55 10 -14 3 -36 8 -50 10 -14 3 -38 8
-55 11 -16 4 -39 8 -50 10 -11 1 -31 5 -45 9 -30 6 -65 13 -105 21 -16 3 -58
11 -93 19 -34 8 -77 17 -95 20 -17 3 -40 8 -49 11 -9 3 -27 7 -40 9 -13 2 -41
9 -63 14 -75 19 -180 43 -202 47 -12 2 -34 9 -48 14 -14 5 -25 7 -25 5 0 -2
-11 0 -25 5 -14 5 -36 12 -48 14 -12 2 -42 9 -67 16 -25 7 -53 14 -62 16 -21
5 -21 5 -148 39 -52 14 -104 28 -115 30 -11 3 -49 14 -85 24 -116 35 -191 57
-222 64 -7 1 -17 5 -23 9 -10 6 -71 20 -80 19 -3 -1 -19 6 -35 14 -16 8 -33
15 -37 15 -13 0 -165 48 -383 122 -113 38 -209 70 -215 72 -10 2 -60 20 -235
86 -47 18 -89 33 -95 34 -5 2 -19 7 -30 11 -11 4 -60 23 -110 42 -130 50 -495
196 -530 213 -11 5 -121 54 -245 108 -124 55 -268 119 -320 143 -105 48 -768
380 -840 421 -25 14 -70 38 -100 55 -30 16 -86 47 -125 68 -38 21 -77 43 -85
50 -8 6 -44 26 -80 45 -36 18 -162 92 -280 163 -118 71 -228 137 -245 146 -16
9 -32 18 -35 21 -3 3 -30 21 -60 40 -260 162 -642 419 -860 578 -47 34 -121
88 -165 119 -242 172 -769 591 -1034 822 -160 140 -337 296 -352 310 -8 9 -56
53 -105 98 -148 135 -180 165 -431 415 -224 221 -438 443 -559 577 -27 30 -61
66 -75 81 -154 162 -609 704 -836 997 -63 81 -122 157 -131 168 -10 11 -64 84
-120 163 -57 78 -110 149 -118 156 -8 8 -14 17 -14 20 0 4 -25 40 -55 81 -30
40 -55 78 -55 84 0 5 -4 11 -8 13 -10 3 -107 144 -265 383 -59 88 -111 165
-117 172 -5 7 -10 14 -10 17 0 3 -29 50 -65 105 -36 55 -65 104 -65 109 0 5
-9 17 -20 27 -11 10 -20 22 -20 26 0 4 -35 65 -78 136 -43 70 -120 202 -172
293 -52 91 -97 167 -100 170 -3 3 -15 25 -28 50 -12 25 -36 68 -52 95 -16 28
-32 57 -36 65 -3 8 -10 24 -17 35 -74 132 -446 870 -438 870 1 0 -12 29 -30
65 -18 36 -34 67 -34 70 -3 10 -23 56 -53 120 -17 36 -51 115 -77 175 -26 61
-53 124 -60 140 -20 44 -101 245 -147 360 -21 55 -43 109 -48 120 -5 11 -24
58 -41 105 -17 47 -42 114 -56 150 -13 36 -44 124 -69 195 -25 72 -50 139 -54
150 -12 27 -170 510 -174 530 -1 6 -11 37 -21 70 -10 33 -20 65 -21 70 -1 6
-27 96 -57 200 -30 105 -58 204 -62 220 -5 17 -9 35 -11 40 -8 28 -87 332 -90
347 -2 10 -6 27 -9 38 -6 25 -11 43 -25 105 -6 28 -14 58 -16 68 -2 9 -6 26
-9 38 -2 11 -6 28 -9 37 -3 9 -7 28 -10 42 -5 29 -22 104 -30 140 -4 14 -9 39
-11 55 -3 17 -8 37 -10 45 -2 8 -6 26 -9 40 -2 14 -11 59 -20 100 -8 41 -18
89 -21 105 -2 17 -7 41 -10 55 -3 14 -12 63 -20 110 -14 82 -19 107 -30 160
-2 14 -7 40 -10 58 -3 17 -7 46 -10 62 -9 55 -14 85 -20 125 -3 23 -8 52 -10
65 -3 14 -8 45 -11 70 -3 25 -8 54 -10 65 -2 10 -6 37 -9 60 -3 22 -8 58 -12
80 -3 22 -7 51 -8 65 -2 14 -5 43 -9 65 -3 22 -8 60 -10 85 -3 25 -8 65 -11
90 -9 64 -15 118 -20 170 -2 25 -6 63 -9 85 -2 22 -7 67 -10 100 -15 146 -17
173 -21 216 -2 25 -7 83 -10 130 -3 46 -8 104 -10 129 -4 42 -14 200 -20 315
-27 516 -27 1309 0 1825 5 98 16 274 20 325 3 28 7 84 10 125 8 109 14 179 19
227 3 23 8 76 11 119 4 43 8 86 10 96 2 10 7 50 10 88 3 38 8 79 10 90 2 12 7
51 11 88 3 36 8 75 10 85 2 11 6 45 10 76 3 31 8 63 9 72 2 9 6 40 10 69 4 29
8 61 10 70 2 9 6 41 10 71 5 50 8 64 20 129 3 14 7 41 10 60 5 40 15 103 21
133 2 12 6 37 9 57 3 20 8 47 10 60 3 14 8 40 11 59 3 18 8 43 10 55 2 11 8
46 14 76 6 30 12 66 15 80 3 14 7 36 10 50 7 38 14 70 25 125 11 52 18 86 24
120 2 11 14 65 26 120 12 55 24 111 26 125 3 14 10 43 16 65 5 22 12 51 14 65
3 14 7 33 10 42 3 9 6 25 9 35 2 10 20 83 40 163 20 80 38 152 40 160 2 8 10
42 19 75 9 33 18 67 20 75 2 8 12 41 21 74 9 32 18 64 19 70 1 6 10 38 20 71
10 33 20 67 22 75 7 32 63 216 73 243 6 15 8 27 5 27 -4 0 -2 6 4 13 6 6 10
16 10 20 0 13 112 363 139 437 3 8 7 20 9 25 4 17 85 249 94 270 9 22 44 117
46 125 0 3 4 14 9 25 4 11 18 47 30 80 13 33 42 110 65 170 23 61 48 124 55
140 7 17 22 53 33 80 35 89 84 209 97 240 69 155 107 244 110 255 0 3 10 23
22 45 11 22 21 42 21 45 0 3 16 41 37 85 20 44 55 121 78 170 72 157 392 789
415 823 13 18 21 32 18 32 -4 0 4 17 17 38 12 20 31 55 42 77 11 22 23 42 26
45 3 3 26 43 52 90 26 47 60 108 75 135 16 28 38 66 49 85 104 183 369 610
505 813 43 64 78 121 78 126 0 5 4 11 8 13 8 3 142 196 142 204 0 2 7 12 16
22 9 9 70 94 136 187 101 142 315 431 371 501 8 11 87 109 175 219 142 179
310 384 361 440 9 11 67 76 127 145 317 363 550 607 1052 1101 26 25 88 84
137 129 50 46 113 105 140 130 240 224 705 617 1030 872 6 4 24 18 40 31 17
13 98 74 180 136 83 61 155 116 161 121 73 58 528 376 694 484 259 170 440
286 446 286 8 0 89 55 92 63 2 4 8 7 13 7 8 0 123 67 312 181 27 16 50 29 52
29 3 0 34 18 70 40 36 22 67 40 69 40 2 0 55 29 117 64 188 104 626 335 694
365 11 5 83 39 160 76 77 37 165 79 195 92 30 14 89 42 130 61 41 20 77 36 80
37 3 1 23 9 45 20 22 10 45 19 50 20 6 2 35 14 65 28 74 34 270 119 280 121
16 4 157 61 165 67 6 4 31 15 56 23 25 9 64 23 85 33 21 9 44 18 49 19 12 3
273 102 300 114 11 5 54 21 95 35 41 14 82 28 90 32 8 3 20 7 25 8 6 2 62 21
125 43 228 80 723 237 732 232 2 -1 17 4 33 10 17 7 37 13 45 15 8 2 107 29
220 60 113 31 215 59 227 61 12 2 34 9 48 14 14 5 25 8 25 5 0 -2 18 2 40 10
22 8 40 12 40 10 0 -3 11 0 25 5 14 5 36 12 48 14 43 9 63 14 107 26 25 7 54
14 65 15 32 5 78 15 97 21 10 3 30 7 45 10 16 3 46 10 68 16 22 5 49 12 60 14
11 2 31 6 45 9 14 3 34 7 45 9 11 2 56 12 100 21 44 9 89 18 100 19 11 2 34 6
50 10 51 11 103 21 170 32 17 3 37 7 45 9 8 2 35 7 60 10 24 4 47 8 50 10 3 2
30 6 60 10 30 4 57 8 60 10 3 2 28 6 55 10 28 4 61 8 75 11 14 2 40 6 58 8 76
11 109 17 132 21 14 3 46 7 71 10 25 3 56 8 70 10 13 3 47 7 74 10 28 4 61 8
75 10 14 2 45 6 70 9 25 3 65 8 90 11 60 8 116 15 165 19 22 3 65 7 95 11 91
10 142 15 205 20 33 3 79 7 102 9 22 3 81 8 130 11 48 3 108 8 133 10 155 12
287 19 570 30 107 4 196 8 198 10 5 4 1059 -4 1162 -9z"/>
<path d="M21177 34384 c-1 -1 -117 -5 -257 -9 -140 -4 -286 -8 -325 -10 -131
-6 -310 -15 -370 -20 -33 -2 -107 -7 -165 -11 -149 -9 -210 -14 -385 -29 -27
-3 -75 -7 -105 -9 -87 -8 -249 -25 -300 -31 -19 -3 -60 -7 -90 -10 -30 -3 -72
-7 -92 -10 -21 -3 -55 -7 -75 -10 -107 -13 -197 -25 -233 -30 -14 -2 -49 -7
-79 -10 -30 -4 -63 -9 -75 -11 -12 -2 -39 -6 -61 -9 -22 -3 -49 -7 -60 -9 -11
-2 -40 -7 -65 -10 -25 -3 -54 -8 -65 -10 -11 -2 -40 -7 -65 -10 -25 -3 -55 -8
-66 -10 -12 -2 -37 -7 -55 -10 -19 -3 -44 -8 -55 -10 -12 -2 -39 -7 -60 -11
-77 -12 -99 -15 -124 -20 -14 -3 -36 -8 -50 -10 -14 -3 -41 -8 -60 -11 -19 -3
-43 -7 -52 -10 -18 -5 -45 -11 -93 -20 -16 -3 -48 -9 -70 -14 -22 -5 -54 -11
-72 -14 -51 -9 -263 -56 -323 -71 -30 -8 -68 -16 -85 -19 -23 -5 -319 -78
-447 -111 -10 -3 -26 -7 -35 -9 -23 -6 -189 -52 -278 -77 -38 -11 -83 -24
-100 -29 -16 -4 -68 -20 -115 -34 -47 -15 -93 -29 -104 -31 -10 -2 -37 -11
-60 -19 -22 -8 -99 -33 -171 -56 -71 -22 -137 -44 -145 -47 -8 -3 -19 -7 -25
-9 -25 -6 -371 -130 -445 -159 -19 -8 -123 -48 -230 -91 -202 -79 -486 -199
-625 -263 -44 -21 -109 -51 -145 -67 -149 -66 -672 -332 -825 -418 -27 -16
-79 -44 -115 -64 -36 -19 -69 -38 -75 -42 -5 -4 -30 -19 -55 -32 -122 -68
-295 -172 -298 -180 -2 -4 -8 -8 -13 -8 -12 0 -113 -62 -117 -72 -2 -4 -8 -8
-12 -8 -12 0 -234 -142 -238 -152 -2 -5 -8 -8 -13 -8 -16 0 -379 -250 -599
-414 -134 -100 -271 -204 -300 -229 -8 -7 -44 -35 -80 -63 -36 -27 -69 -54
-75 -60 -5 -6 -64 -56 -130 -110 -114 -94 -255 -216 -340 -294 -22 -20 -76
-70 -120 -110 -44 -40 -90 -83 -101 -94 -322 -315 -453 -449 -608 -621 -54
-61 -104 -114 -110 -120 -6 -5 -24 -26 -40 -45 -15 -19 -53 -63 -84 -98 -30
-35 -100 -118 -155 -185 -54 -67 -112 -138 -129 -157 -54 -65 -374 -494 -465
-625 -211 -303 -462 -702 -599 -950 -12 -22 -54 -98 -93 -170 -39 -71 -83
-152 -97 -180 -15 -27 -31 -59 -38 -71 -6 -11 -33 -65 -59 -120 -27 -54 -53
-106 -58 -114 -5 -8 -28 -55 -50 -105 -23 -49 -54 -117 -69 -150 -64 -138
-114 -256 -198 -460 -48 -119 -113 -286 -117 -300 -1 -5 -7 -23 -14 -40 -57
-143 -226 -648 -246 -735 -2 -8 -8 -26 -13 -40 -5 -14 -10 -28 -10 -33 0 -4
-8 -33 -17 -65 -10 -31 -19 -68 -22 -81 -2 -14 -6 -28 -9 -33 -3 -4 -7 -16 -9
-25 -1 -10 -10 -43 -19 -74 -9 -31 -19 -66 -21 -78 -2 -13 -7 -31 -10 -41 -3
-10 -8 -28 -10 -39 -3 -12 -7 -30 -10 -41 -3 -11 -7 -29 -10 -40 -3 -11 -7
-28 -9 -37 -2 -10 -13 -54 -24 -98 -11 -44 -23 -93 -26 -110 -10 -58 -17 -90
-22 -105 -3 -8 -10 -37 -15 -65 -4 -27 -15 -80 -23 -116 -8 -36 -17 -81 -20
-100 -3 -19 -8 -45 -11 -59 -3 -14 -9 -50 -15 -80 -6 -30 -12 -66 -15 -80 -3
-13 -7 -40 -10 -60 -3 -20 -7 -47 -10 -60 -3 -13 -7 -40 -10 -60 -3 -20 -7
-47 -10 -60 -3 -13 -7 -42 -10 -65 -4 -22 -8 -51 -10 -65 -2 -14 -7 -45 -10
-70 -3 -25 -8 -56 -10 -70 -2 -14 -7 -45 -10 -70 -3 -25 -7 -61 -10 -81 -3
-20 -7 -54 -10 -75 -2 -21 -7 -59 -10 -84 -5 -43 -11 -95 -20 -190 -2 -25 -7
-70 -10 -100 -3 -30 -8 -77 -10 -105 -2 -27 -6 -79 -9 -115 -6 -65 -9 -108
-21 -295 -33 -505 -38 -1305 -10 -1805 10 -177 21 -346 30 -462 13 -163 18
-208 40 -418 1 -14 6 -54 9 -90 4 -36 9 -76 11 -90 7 -43 15 -103 20 -155 3
-27 8 -61 10 -75 2 -14 7 -45 10 -70 4 -25 8 -54 10 -65 2 -11 6 -40 9 -65 3
-25 8 -56 11 -70 3 -13 7 -42 10 -65 3 -22 8 -47 10 -55 2 -8 7 -33 10 -55 3
-23 8 -52 11 -65 3 -14 7 -34 8 -45 4 -22 23 -125 31 -165 3 -14 8 -38 10 -55
3 -16 8 -37 10 -45 2 -8 7 -31 10 -50 3 -19 8 -42 10 -50 2 -8 6 -26 9 -40 5
-29 24 -116 31 -145 3 -11 7 -29 9 -40 2 -11 16 -69 31 -130 15 -60 29 -118
31 -127 10 -45 13 -57 29 -113 9 -33 18 -69 20 -80 3 -11 27 -99 55 -195 28
-96 52 -182 55 -190 49 -182 278 -836 356 -1017 10 -24 19 -47 20 -51 0 -4 6
-16 12 -27 6 -11 12 -23 13 -27 1 -5 3 -10 4 -13 1 -3 3 -8 4 -12 1 -5 9 -21
18 -38 8 -16 19 -41 23 -55 4 -14 21 -54 38 -90 17 -36 30 -67 29 -70 0 -3 8
-21 18 -40 11 -19 41 -84 69 -145 27 -60 97 -204 155 -320 98 -194 136 -266
210 -400 16 -27 44 -79 64 -115 20 -36 38 -67 42 -70 3 -3 11 -16 18 -30 12
-25 19 -36 77 -135 45 -75 47 -77 95 -154 25 -40 50 -80 55 -89 54 -89 199
-307 207 -310 4 -2 8 -8 8 -13 0 -6 17 -33 38 -62 20 -29 42 -60 47 -69 11
-18 99 -142 114 -161 6 -6 69 -91 140 -187 71 -96 133 -179 138 -185 5 -5 39
-48 76 -95 38 -47 74 -92 80 -100 14 -17 170 -204 196 -235 41 -48 188 -214
226 -255 23 -25 73 -79 111 -120 109 -119 539 -546 649 -645 55 -49 102 -93
105 -96 5 -5 174 -155 215 -190 272 -232 676 -546 900 -699 44 -30 82 -58 85
-61 3 -3 77 -54 165 -113 88 -59 165 -110 170 -114 42 -30 126 -82 134 -82 5
0 11 -4 13 -8 4 -10 135 -92 147 -92 5 0 11 -4 13 -8 4 -10 155 -101 388 -234
327 -188 667 -364 995 -517 61 -28 122 -58 137 -67 15 -8 30 -15 33 -14 3 0
44 -18 91 -40 47 -22 89 -40 93 -40 4 0 29 -11 57 -24 52 -25 206 -90 214 -91
3 0 10 -3 15 -6 6 -4 64 -28 130 -53 66 -26 147 -58 180 -71 71 -28 306 -116
320 -119 6 -2 21 -7 35 -13 33 -14 332 -115 345 -117 6 -1 16 -5 23 -9 6 -5
12 -6 12 -2 0 3 13 -1 30 -10 16 -8 33 -15 37 -15 5 0 58 -15 118 -34 112 -36
448 -134 475 -140 8 -2 22 -5 30 -9 16 -5 131 -36 158 -42 9 -2 87 -22 172
-44 85 -22 166 -42 180 -45 14 -3 35 -7 48 -10 60 -15 138 -33 172 -40 14 -2
77 -16 140 -31 63 -14 126 -28 140 -30 14 -2 36 -7 50 -10 14 -3 36 -7 50 -10
14 -3 36 -7 50 -10 14 -3 36 -7 50 -10 14 -3 35 -7 46 -9 12 -2 37 -7 55 -10
19 -3 45 -8 59 -11 14 -3 39 -8 55 -10 17 -3 57 -11 90 -17 60 -11 75 -13 130
-22 17 -2 45 -7 63 -10 76 -14 99 -18 132 -22 53 -6 103 -14 130 -19 27 -5 74
-12 135 -20 22 -2 49 -6 60 -9 18 -3 103 -14 165 -21 14 -1 50 -6 80 -10 30
-4 69 -9 85 -11 17 -1 50 -5 75 -9 25 -3 64 -8 88 -10 23 -3 63 -7 90 -10 26
-3 70 -8 97 -10 28 -3 68 -7 90 -9 22 -3 76 -8 120 -11 44 -4 94 -9 110 -11
17 -1 71 -6 120 -9 50 -4 106 -8 125 -10 19 -1 82 -6 140 -9 58 -4 130 -9 161
-11 622 -44 1718 -48 2444 -10 72 4 155 8 185 10 51 2 190 12 298 20 26 2 85
6 132 10 136 10 232 19 335 29 22 3 69 7 105 11 36 3 81 8 100 10 19 3 58 7
85 10 102 10 136 14 258 30 23 3 62 8 87 11 25 2 59 7 75 10 17 3 46 7 65 10
19 2 52 6 72 8 47 6 107 15 138 21 13 3 42 7 65 10 22 4 52 8 66 11 15 2 44 6
65 9 22 3 50 7 64 10 14 3 41 8 60 11 55 8 79 12 170 29 47 9 94 17 105 19 11
2 34 6 50 9 17 4 44 9 60 12 17 3 41 7 55 10 14 3 36 7 50 10 14 3 36 7 50 10
14 3 36 7 50 10 33 6 55 11 110 24 25 5 61 13 80 16 19 3 43 8 52 11 9 3 25 7
35 9 21 4 160 34 183 40 8 1 116 28 240 60 124 31 232 58 241 60 9 2 34 8 55
15 40 11 141 40 159 44 6 2 24 6 40 10 17 4 41 11 55 16 14 5 59 18 100 30
295 85 899 286 1007 336 17 8 36 14 42 14 6 0 19 4 29 9 33 17 97 43 112 46
16 3 137 51 205 81 22 10 45 19 50 20 21 5 327 137 445 192 30 14 57 26 60 26
3 1 21 9 40 18 19 9 67 30 105 48 98 45 534 262 630 313 180 97 267 145 415
230 85 49 175 100 199 114 24 14 104 63 177 109 74 46 139 84 144 84 6 0 10 4
10 8 0 4 15 16 33 27 58 34 261 168 275 181 7 8 19 14 27 14 7 0 15 4 17 8 2
4 48 39 103 77 108 74 397 284 405 294 3 4 30 25 60 46 48 35 311 244 386 307
106 89 275 236 359 312 55 50 115 104 134 121 79 71 556 550 653 655 90 97
314 351 355 400 6 8 56 69 110 135 199 242 573 741 573 764 0 5 4 11 8 13 12
4 192 275 192 288 0 5 3 10 8 10 4 0 20 21 35 48 15 26 42 70 60 98 80 126
177 293 177 303 0 6 4 11 9 11 5 0 15 16 22 35 7 19 16 35 19 35 3 0 25 39 50
88 25 48 47 89 50 92 14 14 229 439 304 600 27 58 56 121 65 140 9 19 16 37
16 40 1 3 12 28 24 55 45 97 111 251 115 270 1 6 10 28 20 50 10 22 31 76 48
120 16 44 41 109 56 145 14 36 31 83 38 105 7 22 25 72 39 110 15 39 28 77 30
85 2 8 22 71 45 140 23 69 43 130 44 135 2 6 5 17 8 25 10 26 50 161 53 179 2
9 4 16 5 16 1 0 3 7 5 15 2 8 11 40 20 70 9 30 18 62 20 70 14 48 115 439 119
460 3 14 7 34 10 45 18 80 27 119 42 195 3 14 7 32 9 40 3 8 7 33 11 54 3 22
10 50 15 63 5 13 8 27 7 31 -1 4 2 26 6 49 4 24 7 44 6 45 -1 2 3 14 8 28 5
14 12 45 16 70 3 25 8 56 11 70 2 13 7 40 10 60 3 20 7 47 10 60 3 13 7 42 10
65 3 22 8 47 10 55 2 8 7 35 10 60 3 25 8 56 10 70 2 14 7 43 10 65 2 22 7 56
10 75 3 19 7 58 10 86 3 28 8 61 10 75 3 13 7 48 10 79 3 30 7 64 8 75 2 20
-5 20 -3495 23 -2795 2 -3498 0 -3499 -10 0 -7 -2 -20 -4 -28 -2 -8 -7 -28
-10 -45 -7 -36 -36 -158 -49 -212 -3 -10 -17 -63 -31 -118 -15 -55 -28 -107
-30 -115 -9 -36 -44 -147 -54 -172 -6 -16 -8 -28 -5 -28 4 0 2 -6 -3 -12 -6
-7 -13 -26 -17 -43 -7 -31 -29 -94 -86 -245 -18 -47 -33 -89 -34 -95 -4 -13
-24 -65 -36 -90 -5 -11 -21 -48 -35 -82 -30 -73 -67 -156 -103 -233 -15 -30
-27 -57 -27 -60 -1 -5 -4 -11 -88 -170 -251 -475 -555 -897 -922 -1279 -85
-88 -161 -163 -209 -206 -256 -230 -476 -404 -681 -540 -33 -22 -62 -42 -65
-45 -17 -17 -365 -224 -455 -270 -27 -14 -57 -30 -65 -35 -8 -5 -64 -33 -123
-61 -59 -29 -114 -58 -122 -64 -8 -7 -15 -10 -15 -7 0 3 -31 -10 -70 -29 -38
-18 -72 -34 -74 -34 -5 0 -82 -33 -141 -60 -29 -14 -78 -33 -91 -35 -6 -2 -27
-10 -45 -18 -19 -8 -47 -20 -64 -26 -16 -6 -43 -16 -60 -22 -16 -7 -34 -13
-40 -15 -17 -5 -189 -65 -205 -71 -8 -4 -17 -7 -20 -8 -3 -1 -39 -12 -80 -25
-41 -13 -79 -25 -85 -26 -5 -2 -48 -15 -95 -29 -47 -14 -92 -27 -100 -29 -8
-2 -35 -10 -60 -17 -51 -14 -63 -17 -87 -23 -10 -3 -18 -5 -18 -6 0 -1 -7 -3
-15 -5 -8 -1 -53 -12 -100 -23 -103 -25 -218 -52 -245 -58 -11 -2 -31 -6 -45
-9 -14 -3 -35 -7 -48 -10 -13 -2 -31 -6 -40 -9 -9 -3 -33 -7 -52 -10 -19 -3
-46 -8 -60 -11 -14 -3 -38 -7 -55 -10 -16 -3 -52 -10 -80 -15 -47 -9 -70 -13
-140 -24 -99 -15 -122 -19 -136 -21 -9 -2 -40 -6 -70 -10 -30 -3 -67 -9 -84
-11 -44 -8 -84 -13 -145 -19 -30 -3 -71 -8 -91 -11 -20 -2 -58 -7 -83 -9 -25
-3 -67 -7 -93 -10 -27 -3 -81 -7 -121 -10 -41 -3 -90 -8 -110 -10 -32 -3 -109
-8 -317 -21 -287 -17 -789 -21 -1120 -10 -223 7 -255 9 -425 20 -92 7 -127 9
-255 21 -105 9 -242 24 -275 30 -14 2 -50 6 -80 10 -54 5 -107 12 -165 21 -16
3 -46 7 -65 10 -19 2 -46 6 -60 9 -23 4 -52 9 -125 21 -16 2 -41 7 -55 9 -47
10 -142 28 -217 41 -16 3 -44 9 -63 14 -19 5 -48 12 -65 14 -98 18 -357 83
-520 131 -27 9 -59 17 -70 20 -82 17 -534 173 -644 222 -18 8 -39 16 -45 17
-6 1 -29 10 -51 20 -22 9 -94 40 -160 68 -167 71 -551 267 -730 373 -229 134
-576 371 -730 496 -419 344 -745 675 -1021 1039 -43 58 -81 107 -84 110 -6 6
-54 75 -121 175 -30 44 -56 82 -59 85 -3 3 -11 16 -19 30 -8 14 -48 78 -88
143 -40 66 -73 120 -73 121 0 1 -27 52 -61 112 -84 150 -289 575 -289 599 0 3
-9 24 -19 48 -51 111 -195 522 -237 674 -37 132 -105 404 -124 493 -12 52 -23
104 -25 115 -3 10 -7 37 -11 59 -3 22 -7 43 -9 46 -1 3 -6 27 -9 54 -4 27 -9
53 -11 56 -2 4 -7 29 -10 57 -3 27 -7 58 -9 69 -2 10 -7 39 -11 64 -3 25 -9
59 -11 75 -3 17 -7 46 -9 65 -10 92 -16 147 -20 170 -4 22 -9 76 -20 185 -41
432 -50 1114 -20 1530 2 28 6 91 10 140 3 50 7 104 9 120 2 17 7 64 10 105 4
41 9 86 11 100 2 14 6 48 10 75 3 28 8 68 11 90 3 22 7 56 9 75 2 19 6 44 9
55 2 11 7 40 10 65 3 25 8 56 11 70 2 13 7 42 10 65 5 34 14 77 41 210 2 11 6
31 9 45 10 55 15 76 22 105 4 17 7 32 8 35 1 3 4 19 8 35 4 17 10 40 12 53 3
12 7 31 10 42 3 11 7 28 9 38 9 39 58 219 66 242 5 14 20 66 35 115 26 89 80
252 95 290 11 26 64 169 66 175 0 3 5 16 11 30 6 14 32 77 58 140 91 223 259
551 432 845 143 243 429 626 648 870 133 147 343 355 490 484 66 57 121 108
123 113 2 4 10 8 17 8 7 0 15 3 17 8 11 27 442 344 579 427 10 6 88 53 176
106 319 194 615 341 991 494 131 53 379 146 427 159 6 2 17 6 25 9 35 13 362
111 405 120 11 3 38 10 60 16 22 6 43 11 47 11 4 0 26 7 48 15 22 8 41 14 43
13 2 -1 109 23 192 43 22 5 51 12 65 14 59 12 76 15 100 20 14 3 36 7 50 10
14 3 36 7 50 10 14 3 40 8 59 11 18 3 43 8 55 10 51 10 127 23 172 29 22 3 50
7 64 10 26 6 65 11 140 20 25 3 56 7 70 10 23 4 103 14 160 20 14 1 50 5 80 9
135 15 184 19 355 31 55 4 120 8 145 10 137 11 445 18 735 19 480 0 816 -16
1245 -59 28 -3 74 -7 103 -10 49 -5 100 -11 157 -20 14 -2 50 -7 80 -10 30 -4
96 -13 145 -20 50 -8 108 -17 130 -20 22 -3 51 -8 65 -11 65 -12 77 -14 114
-20 22 -3 43 -7 46 -9 3 -1 27 -6 54 -9 27 -4 52 -9 55 -11 3 -1 22 -6 41 -9
60 -10 77 -14 235 -50 111 -26 250 -61 360 -91 33 -9 65 -18 70 -19 24 -6 103
-30 140 -41 231 -74 335 -109 360 -120 17 -7 41 -16 55 -20 14 -3 34 -10 45
-15 26 -12 289 -114 295 -115 3 -1 21 -8 40 -17 19 -9 82 -37 140 -63 253
-113 500 -243 735 -384 88 -54 171 -104 185 -112 13 -7 29 -19 36 -24 6 -6 42
-31 80 -55 38 -25 71 -47 74 -50 3 -3 36 -27 73 -54 72 -51 299 -225 307 -236
3 -4 34 -31 70 -61 247 -203 608 -586 825 -874 50 -66 92 -122 95 -125 3 -3
10 -12 15 -21 23 -37 130 -194 135 -199 3 -3 12 -16 19 -30 8 -14 57 -96 108
-183 85 -146 310 -588 319 -627 0 -3 7 -18 14 -35 7 -16 14 -32 14 -35 2 -7
26 -69 42 -105 35 -79 112 -304 178 -515 36 -117 132 -493 138 -542 2 -15 7
-31 12 -35 4 -4 1576 -8 3493 -8 3519 0 3520 0 3500 32 -3 5 -8 35 -12 68 -3
33 -8 71 -10 85 -4 27 -15 109 -20 150 -2 14 -6 44 -9 68 -3 23 -8 59 -11 80
-3 20 -7 48 -10 62 -3 14 -8 45 -11 70 -2 25 -6 52 -9 60 -2 8 -7 33 -10 55
-3 23 -8 52 -10 65 -3 14 -8 40 -11 59 -3 18 -8 43 -10 55 -2 11 -7 36 -10 55
-3 18 -8 43 -10 55 -2 11 -7 35 -9 51 -3 17 -8 38 -11 48 -3 10 -7 30 -9 45
-3 15 -7 38 -10 52 -3 14 -10 45 -15 70 -5 25 -12 56 -15 70 -8 31 -14 59 -19
85 -2 11 -11 47 -20 80 -8 33 -18 75 -21 94 -3 19 -8 37 -10 41 -2 3 -6 17 -8
31 -6 28 -59 231 -88 334 -11 39 -22 77 -24 85 -2 8 -4 15 -5 15 -1 0 -3 7 -5
15 -1 8 -15 54 -29 102 -15 48 -27 89 -26 90 0 2 -9 30 -20 63 -12 33 -23 68
-25 77 -2 9 -9 26 -15 37 -6 12 -9 21 -6 21 2 0 -5 24 -15 53 -11 28 -22 59
-24 67 -11 37 -102 294 -122 340 -3 8 -7 17 -8 20 -1 7 -41 109 -56 145 -6 17
-13 35 -15 40 -2 10 -69 171 -106 255 -10 25 -23 54 -28 65 -138 319 -348 739
-520 1040 -34 61 -74 130 -88 155 -14 25 -29 47 -34 48 -4 2 -8 9 -8 15 0 13
-141 241 -152 245 -4 2 -8 8 -8 13 0 9 -147 238 -159 249 -3 3 -10 13 -16 22
-46 81 -393 556 -498 684 -9 10 -71 87 -138 169 -102 124 -194 232 -412 479
-139 158 -530 550 -762 762 -356 327 -857 732 -1180 955 -27 19 -51 37 -53 42
-2 4 -10 7 -17 7 -7 0 -15 4 -17 9 -6 17 -429 294 -715 470 -99 60 -374 219
-473 273 -36 20 -87 48 -115 64 -104 58 -473 246 -660 334 -175 83 -521 240
-540 244 -5 1 -28 10 -50 20 -38 16 -186 78 -230 96 -11 4 -37 16 -59 25 -21
9 -44 18 -50 20 -6 1 -20 6 -31 10 -252 102 -892 324 -1070 371 -5 2 -48 15
-95 29 -47 15 -96 28 -109 31 -14 3 -28 7 -33 10 -4 3 -18 7 -30 10 -29 6 -39
9 -58 17 -25 10 -417 113 -467 123 -12 2 -34 9 -48 14 -14 5 -25 8 -25 5 0 -2
-15 1 -32 6 -18 6 -42 12 -53 14 -33 8 -64 15 -87 21 -25 5 -51 11 -83 18 -11
2 -50 11 -86 20 -37 8 -78 17 -90 20 -13 3 -35 7 -49 10 -64 14 -76 17 -95 20
-46 10 -242 48 -265 52 -14 3 -32 7 -41 10 -9 2 -32 7 -50 9 -19 3 -45 7 -59
10 -14 3 -38 7 -55 10 -16 3 -41 7 -55 10 -14 3 -41 7 -60 10 -19 3 -48 8 -65
11 -16 3 -43 7 -60 10 -16 2 -55 9 -85 14 -86 15 -112 19 -160 26 -25 3 -54 7
-65 9 -11 2 -42 6 -70 10 -27 3 -61 8 -75 10 -14 2 -43 6 -65 9 -22 3 -60 8
-85 11 -25 3 -63 8 -84 10 -21 3 -56 7 -76 10 -20 3 -55 7 -76 10 -21 2 -59 7
-84 10 -25 3 -67 8 -95 10 -27 3 -70 7 -95 10 -78 9 -133 14 -195 20 -33 3
-80 7 -105 10 -42 4 -70 6 -260 20 -340 26 -548 37 -965 51 -185 6 -1083 13
-1088 8z"/>
</g>
</svg>
