<?xml version="1.0" standalone="no"?>
<!DOCTYPE svg PUBLIC "-//W3C//DTD SVG 20010904//EN"
 "http://www.w3.org/TR/2001/REC-SVG-20010904/DTD/svg10.dtd">
<svg version="1.0" xmlns="http://www.w3.org/2000/svg"
 width="371.000000pt" height="371.000000pt" viewBox="0 0 371.000000 371.000000"
 preserveAspectRatio="xMidYMid meet">
<metadata>
Created by potrace 1.14, written by Peter Selinger 2001-2017
</metadata>
<g transform="translate(0.000000,371.000000) scale(0.100000,-0.100000)"
fill="#000000" stroke="none">
<path d="M1709 3696 c-2 -2 -38 -7 -79 -10 -228 -21 -531 -125 -730 -251 -30
-19 -62 -38 -70 -42 -8 -3 -17 -9 -20 -12 -3 -4 -41 -33 -85 -66 -76 -56 -224
-197 -292 -278 -51 -60 -133 -176 -133 -187 0 -5 -4 -10 -9 -10 -14 0 -155
-287 -182 -370 -6 -19 -13 -42 -16 -50 -7 -18 -6 -15 -33 -120 -29 -111 -26
-95 -50 -282 -8 -67 -6 -328 4 -388 3 -14 7 -43 11 -65 3 -22 8 -51 11 -65 3
-14 8 -36 10 -50 17 -93 78 -264 144 -405 44 -94 163 -284 220 -350 47 -55
115 -129 140 -153 129 -122 198 -177 328 -259 89 -56 263 -143 285 -143 7 0
17 -4 23 -9 10 -9 195 -68 236 -75 15 -3 31 -7 35 -9 5 -3 32 -8 62 -11 29 -4
57 -8 60 -11 12 -7 172 -18 271 -18 211 -1 392 29 600 99 101 34 266 110 341
157 19 12 54 33 77 46 23 14 42 28 42 33 0 4 4 8 10 8 11 0 15 3 115 86 194
162 357 369 472 600 72 143 145 363 159 477 3 23 7 48 10 56 18 54 25 359 12
481 -14 125 -69 370 -88 395 -5 6 -8 14 -8 18 0 14 -30 88 -84 205 -132 285
-401 580 -693 760 -214 132 -479 225 -735 258 -51 7 -366 15 -371 10z m22
-148 c2 -56 12 -183 18 -218 1 -3 65 -5 144 -6 78 0 169 -6 201 -13 33 -7 69
-14 80 -16 30 -3 149 -37 161 -45 6 -4 23 -10 40 -14 82 -20 296 -140 415
-234 62 -49 260 -252 260 -268 0 -1 20 -31 44 -66 126 -184 218 -429 243 -653
8 -70 8 -292 1 -350 -12 -84 -30 -173 -50 -240 -12 -38 -22 -72 -23 -75 -1 -3
-7 -18 -14 -35 -148 -378 -413 -662 -767 -826 -417 -193 -880 -185 -1299 22
-139 69 -271 166 -392 288 l-103 104 -22 -19 c-12 -10 -27 -22 -33 -26 -5 -4
-30 -24 -55 -45 -25 -20 -53 -43 -62 -51 -15 -12 -23 -5 -79 70 -34 45 -65 93
-70 104 -4 12 -13 25 -18 29 -18 11 -12 24 19 40 l30 15 -20 35 c-11 19 -17
35 -15 35 3 0 -3 12 -12 27 -20 30 -28 50 -83 205 -76 215 -104 432 -85 664
l5 62 -35 6 c-34 7 -35 8 -29 44 63 444 315 876 659 1133 33 24 62 46 65 50 8
9 171 105 225 132 115 58 299 124 395 142 79 14 186 30 228 33 31 3 32 2 33
-40z"/>
<path d="M1645 3124 c-147 -26 -184 -36 -286 -78 -130 -52 -200 -93 -314 -185
-323 -258 -489 -597 -485 -991 0 -52 2 -108 4 -125 2 -16 7 -57 10 -89 4 -33
9 -63 12 -68 3 -4 7 -20 9 -35 7 -51 47 -167 86 -250 77 -162 207 -328 350
-445 23 -18 50 -41 61 -50 11 -10 29 -20 39 -23 11 -4 19 -10 19 -14 0 -22
296 -150 381 -166 13 -3 35 -7 49 -10 137 -28 418 -28 550 2 52 11 166 45 200
60 68 29 175 86 207 109 17 13 36 24 41 24 6 0 12 3 14 8 2 4 25 25 53 47 99
80 202 195 271 302 106 167 185 397 199 587 l4 56 -147 -5 c-81 -2 -214 -7
-297 -11 -174 -7 -267 -10 -384 -14 l-85 -3 -31 -66 c-62 -129 -159 -198 -288
-205 -254 -14 -433 205 -381 464 57 277 412 369 617 159 33 -34 52 -44 78 -41
4 1 73 3 155 6 82 3 221 8 309 12 88 3 196 8 240 9 44 2 106 4 138 4 l57 1 -6
28 c-64 267 -169 459 -345 633 -199 197 -426 315 -694 360 -91 15 -330 17
-410 3z"/>
</g>
</svg>
